<?xml version="1.0" encoding="UTF-8" standalone="no"?>
<!DOCTYPE svg PUBLIC "-//W3C//DTD SVG 1.1//EN"
"http://www.w3.org/Graphics/SVG/1.1/DTD/svg11.dtd">

<!-- Derived from https://www.vecteezy.com/vector-art/90658-dna-double-helix-vector-free by charlieburst -->
<svg x="0" y="0" width="135" height="265" viewBox="0 0 135 265" version="1.1" xmlns="http://www.w3.org/2000/svg" xmlns:xlink="http://www.w3.org/1999/xlink"
style="display: block;margin-left: auto;margin-right: auto;">
<defs>

<style type="text/css"><![CDATA[

.g2_1{
fill: #606060;
}
.g3_1{
fill: #909090;
}
.g1_1{
fill: #FFFFFF;
}


]]></style>

</defs>
<path d="M0,0
L0,265
L135,265
L135,0 Z " 
fill="#FFFFFF" stroke="none" />
<path d="M-87,296l310,0l0,-330l-310,0l0,330Z" class="g1_1" />
<path fill-rule="evenodd" d="M13.2,36.3L119.5,15.7l1.6,10.2L13.2,58.6l0,-22.3Zm3.5,33.6l106,-30.4l0.6,11.3L24.8,90L16.7,69.9ZM34.2,101L119.5,67.2l-0.8,13.4L45.2,112.8L34.2,101Z" class="g2_1" />
<path fill-rule="evenodd" d="M123,225.4L16.7,246L15.1,235.9L123,203.1l0,22.3Zm-3.5,-33.6L13.4,222.2L12.9,210.9l98.5,-39.2l8.1,20.1ZM102,160.7L16.7,194.5l0.8,-13.4L91,148.9l11,11.8Z" class="g3_1" />
<path fill-rule="evenodd" d="M67.8,112c10,-7.3,19.8,-15.2,27.5,-24.7C114,64.4,114.4,38,108.1,10.2c-1,-4.3,-3.7,-10.1,2.8,-12.6c3.2,-1.4,6.6,-0.1,8.4,2.5c0.2,0.5,0.5,0.9,0.7,1.3c0.7,1.2,1.3,2.5,1.9,3.7c7.7,15.3,15.1,35.6,14.3,52.8c-1.4,31.3,-17.6,56.2,-40.7,74.6c6.9,5.3,13.5,11,19.5,17.5c27.8,29.5,25.6,69.9,8.8,104.2c-0.8,1.8,-1.7,3.6,-2.6,5.4c-0.3,0.5,-0.6,1,-0.9,1.5c-0.2,0.4,-0.2,0.4,-0.6,0.9c-1.9,2.4,-5.2,3.4,-8.1,2.1c-7,-3,-2.9,-10.6,-1.6,-15.1c12.1,-40.9,-8.4,-76.8,-42.2,-98.5C33,172.9,12.6,210.1,26.6,251.9c0.3,0.9,0.6,1.8,0.9,2.7c1.3,3.4,1.7,7.4,-3,9.6c-3.3,1.6,-6.9,0.2,-8.7,-2.6c-0.2,-0.3,-0.4,-0.7,-0.6,-1c-0.6,-1,-1.1,-2.1,-1.7,-3.1C-4.8,222.8,-7.9,180.5,20.7,150c6,-6.5,12.6,-12.2,19.4,-17.5C17,114.1,0.8,89.2,-0.5,57.9C-1.2,40.2,6.5,19.1,14.5,3.6C15,2.7,15.4,1.9,15.9,1C16,0.7,16.2,0.3,16.5,0c1.7,-2.6,5.2,-3.8,8.3,-2.6c6,2.5,4.1,7.1,3.2,11C21.2,36.7,21.2,63.8,40.4,87.3c7.7,9.5,17.5,17.4,27.4,24.7Z" class="g1_1" />
<path fill-rule="evenodd" d="M20.5,6.7C16.1,15.2,5.3,38.3,6.2,57.6c1,24.3,12.9,57.6,58.1,83c42.8,23.9,65.4,65.7,52.2,110.3c-2,6.6,-4.3,11.7,1.3,0.3c8.4,-17.2,25,-61.8,-7.7,-96.6C69.2,111,-0.6,99.9,21.4,6.8C22.3,3.4,23,1.7,20.5,6.7Z" class="g2_1" />
<path fill-rule="evenodd" d="M115.9,8.1c4.7,9.5,14.4,31.2,13.6,49.5c-1.1,24.3,-12.9,57.6,-58.2,83C27.5,165.1,4.9,208.3,20.2,254c1.3,3.8,2.7,6.9,-0.7,0.4C11.9,240.1,-9.3,191.8,25.6,154.6C66.2,111.2,135.4,100.1,114.7,8.7C113.6,4,112.1,0.5,115.9,8.1Z" class="g3_1" />

</svg>
