<?xml version="1.0" standalone="no"?>
<!DOCTYPE svg PUBLIC "-//W3C//DTD SVG 20010904//EN"
 "http://www.w3.org/TR/2001/REC-SVG-20010904/DTD/svg10.dtd">
<svg version="1.0" xmlns="http://www.w3.org/2000/svg"
 width="669.000000pt" height="1081.000000pt" viewBox="0 0 669.000000 1081.000000"
 preserveAspectRatio="xMidYMid meet">
<metadata>
Created by potrace 1.13, written by Peter Selinger 2001-2015
</metadata>
<g transform="translate(0.000000,1081.000000) scale(0.100000,-0.100000)"
fill="#000000" stroke="none">
<path d="M2745 10795 c-91 -20 -157 -53 -310 -157 -149 -100 -188 -116 -335
-138 -79 -12 -163 -45 -216 -85 -18 -14 -61 -61 -94 -105 -65 -84 -122 -128
-199 -156 -331 -120 -496 -248 -580 -449 -29 -68 -59 -190 -50 -199 2 -2 20
-6 39 -8 33 -3 34 -2 42 41 31 178 138 327 304 421 43 25 139 69 214 98 74 30
153 67 175 83 22 16 74 70 115 121 95 116 138 140 300 169 141 25 182 43 352
157 167 113 248 144 377 143 95 0 158 -15 226 -56 136 -79 173 -257 136 -645
l-6 -65 -161 -3 c-161 -2 -162 -2 -168 20 -9 37 -7 98 4 98 6 0 15 12 20 26
21 54 -34 104 -87 81 -31 -14 -34 -31 -24 -133 5 -49 8 -90 7 -92 -2 -1 -106
-1 -232 0 l-229 3 55 19 c126 43 199 101 282 225 97 142 130 169 266 211 39
13 72 24 72 26 0 2 -7 18 -16 36 l-16 34 -85 -28 c-48 -16 -101 -37 -118 -48
-42 -26 -101 -90 -153 -168 -24 -34 -45 -62 -48 -62 -2 0 2 10 10 23 28 41 30
99 7 146 -12 23 -29 45 -37 48 -26 10 -93 -16 -210 -81 -88 -48 -115 -68 -126
-93 -17 -36 -14 -43 17 -43 22 0 65 20 207 99 66 36 79 40 84 27 10 -26 -4
-61 -41 -108 -19 -24 -57 -73 -85 -109 -40 -53 -61 -70 -98 -84 -26 -10 -69
-29 -95 -43 -28 -15 -65 -26 -90 -26 -45 -1 -55 -15 -43 -59 l5 -22 1203 0
1203 0 -3 -25 c-1 -14 -5 -35 -8 -47 l-4 -23 -1191 0 -1190 0 7 -37 c4 -21 19
-76 33 -123 l27 -85 1117 -3 c717 -1 1117 -6 1117 -12 0 -5 -7 -28 -16 -50
l-16 -40 -1080 0 -1080 0 47 -87 c26 -47 58 -103 72 -125 l26 -38 929 -2 930
-3 -37 -47 -36 -48 -855 0 c-811 0 -854 -1 -845 -17 5 -10 51 -65 103 -123
l94 -105 629 -5 629 -5 -59 -48 -60 -48 -503 3 c-276 2 -502 0 -502 -4 0 -19
276 -211 408 -285 74 -41 79 -33 -68 -100 l-94 -42 -106 56 c-500 267 -876
680 -1085 1190 -48 120 -115 338 -115 379 0 30 -16 31 -103 4 -216 -67 -407
-205 -552 -400 -70 -94 -94 -111 -220 -155 -33 -12 -67 -35 -101 -69 -69 -71
-90 -141 -103 -347 -14 -210 -27 -243 -156 -399 -84 -101 -122 -163 -144 -236
-18 -56 -48 -258 -53 -349 -1 -33 -11 -50 -58 -101 -78 -85 -102 -139 -108
-244 -12 -240 87 -349 273 -299 22 6 110 45 195 87 113 55 166 76 197 77 33 1
47 7 64 29 24 30 16 44 -26 47 -11 1 -27 3 -35 4 -32 3 -120 -30 -242 -91
-136 -68 -217 -95 -260 -87 -57 11 -89 80 -90 192 -1 177 77 263 382 426 185
99 242 138 316 218 103 109 133 177 164 372 31 192 103 361 175 411 49 34 65
54 65 79 0 31 -33 65 -63 65 -29 0 -67 -39 -67 -68 0 -12 -16 -43 -37 -69 -73
-96 -129 -248 -153 -419 -21 -155 -52 -227 -139 -317 -72 -76 -111 -102 -306
-208 -136 -74 -160 -84 -163 -68 -6 32 28 245 47 302 23 67 35 86 133 206 87
106 132 184 148 255 6 27 15 115 20 196 15 235 49 297 190 345 102 35 140 64
219 169 127 170 272 281 462 356 28 12 53 19 56 17 2 -2 13 -37 24 -78 11 -41
22 -82 25 -92 5 -16 3 -16 -28 3 -18 11 -43 20 -55 20 -20 0 -23 -5 -23 -40 0
-29 4 -40 15 -40 23 0 102 -77 147 -144 22 -32 59 -95 81 -140 22 -44 76 -134
119 -199 43 -65 78 -120 78 -124 0 -3 -31 -45 -69 -93 l-68 -86 23 -27 c13
-15 25 -27 28 -27 3 0 33 35 67 78 34 42 65 78 69 80 4 1 24 -19 46 -45 21
-26 67 -78 103 -115 35 -38 60 -68 55 -68 -5 0 -42 7 -83 15 -94 20 -242 21
-304 2 -72 -23 -138 -70 -225 -162 -261 -275 -266 -429 -27 -835 30 -52 64
-124 75 -159 l20 -64 -41 -46 c-23 -25 -45 -49 -49 -53 -3 -5 -60 11 -125 34
-149 52 -213 55 -293 14 -75 -38 -131 -93 -234 -228 -78 -104 -92 -118 -118
-118 -35 0 -70 -34 -70 -67 0 -29 33 -63 63 -63 27 0 67 26 67 44 0 8 7 20 17
27 9 8 55 66 103 129 125 165 204 229 284 230 23 0 232 -64 244 -75 1 -1 -26
-47 -60 -101 -102 -162 -169 -350 -198 -554 -9 -69 -6 -296 6 -368 l7 -42 -34
6 c-19 4 -47 13 -62 21 -22 11 -35 12 -63 3 -30 -10 -33 -14 -23 -31 17 -32
67 -57 140 -70 l67 -12 27 -76 c15 -42 44 -113 65 -157 l38 -82 -102 43 c-190
80 -229 107 -297 207 -113 166 -173 353 -152 475 26 151 204 369 336 412 33
11 37 16 37 47 0 30 -3 34 -27 34 -118 -1 -346 -234 -407 -416 -9 -28 -18 -79
-19 -113 l-2 -62 -22 26 c-22 25 -24 25 -52 10 -44 -22 -112 -19 -152 8 -57
38 -86 112 -98 254 -13 141 -35 211 -87 272 l-37 42 -28 -27 -28 -27 29 -34
c46 -52 59 -94 76 -247 11 -108 21 -153 40 -193 62 -128 202 -178 323 -114
l41 21 0 -26 c0 -34 52 -189 86 -256 34 -68 98 -164 138 -206 51 -56 108 -89
254 -152 197 -84 221 -100 299 -205 130 -176 375 -401 601 -554 34 -23 62 -43
62 -44 0 -1 -26 -3 -57 -5 -32 -2 -76 -7 -98 -12 -59 -14 -60 -14 -74 37 -24
91 -99 160 -210 193 -36 10 -145 35 -241 55 -292 59 -357 89 -465 208 -47 52
-55 65 -50 89 5 21 1 33 -19 53 -29 29 -52 32 -84 9 -36 -25 -29 -69 17 -118
22 -23 63 -67 92 -99 111 -122 197 -160 508 -222 259 -51 328 -81 368 -158 34
-66 -10 -242 -71 -282 -14 -9 -63 -25 -108 -35 -46 -11 -112 -32 -148 -47 -56
-23 -79 -27 -160 -27 -107 -1 -158 13 -284 76 -97 48 -170 96 -308 205 -58 45
-109 83 -112 83 -2 0 -14 -13 -26 -30 l-21 -29 55 -43 c45 -34 52 -44 38 -49
-9 -4 -20 -5 -24 -2 -8 4 -13 -16 -23 -85 -13 -96 -75 -182 -221 -304 -150
-126 -180 -179 -172 -302 6 -87 40 -173 91 -231 47 -54 90 -81 175 -110 l66
-22 46 -134 c73 -212 153 -349 278 -476 155 -158 348 -267 686 -390 83 -30
197 -75 253 -99 56 -24 122 -48 147 -53 57 -10 128 2 166 29 15 11 30 16 32
12 5 -14 238 -52 318 -52 106 0 175 21 223 67 41 39 97 143 97 179 0 27 42 66
107 98 51 25 58 26 238 26 180 0 187 -1 238 -26 74 -37 94 -59 113 -123 20
-68 72 -149 116 -178 71 -47 212 -56 378 -23 56 11 110 20 121 20 13 0 18 4
13 12 -4 6 8 2 28 -10 47 -29 117 -41 173 -31 24 5 91 28 147 53 57 25 162 66
233 92 342 123 518 220 677 372 147 140 244 303 315 522 l36 115 73 23 c123
38 199 114 243 243 32 94 28 163 -12 240 -27 53 -51 80 -140 154 -158 133
-214 216 -233 347 -3 26 -9 46 -13 44 -3 -2 -14 -1 -24 3 -14 5 -6 14 38 49
l55 43 -22 30 c-12 16 -24 29 -27 29 -3 0 -40 -27 -81 -60 -277 -222 -487
-321 -654 -308 -34 3 -94 19 -136 35 -42 17 -111 38 -155 47 -64 13 -85 22
-106 45 -58 63 -87 207 -54 270 38 74 111 106 362 156 319 64 408 103 516 227
28 34 69 77 90 97 27 27 37 45 37 68 0 35 -29 63 -66 63 -30 0 -67 -48 -60
-76 10 -38 -88 -146 -186 -207 -38 -24 -170 -60 -328 -91 -167 -33 -270 -61
-318 -85 -72 -37 -142 -132 -142 -191 0 -23 -1 -23 -67 -11 -28 6 -71 11 -97
12 -25 2 -46 4 -46 5 0 1 49 37 110 79 218 150 421 342 558 527 80 107 103
124 247 183 128 52 204 92 252 132 92 74 208 278 247 432 l22 87 44 -23 c91
-46 214 -17 279 66 48 60 64 115 75 261 10 114 25 167 62 216 19 24 34 48 34
52 0 5 -11 18 -24 31 l-23 22 -33 -37 c-47 -54 -78 -128 -85 -203 -17 -183
-23 -216 -46 -263 -39 -77 -137 -110 -211 -72 -30 16 -31 15 -53 -12 l-22 -28
-5 82 c-4 68 -11 94 -41 154 -90 183 -275 358 -379 358 -26 0 -28 -3 -28 -40
0 -34 3 -40 20 -40 64 0 183 -101 266 -226 69 -104 86 -151 87 -244 2 -175
-134 -447 -267 -535 -50 -34 -266 -130 -266 -119 0 2 13 30 29 62 15 31 43 98
62 147 18 50 34 92 36 94 1 2 25 7 52 12 63 10 119 36 132 61 23 42 -32 54
-110 24 -24 -9 -45 -15 -48 -13 -2 3 1 45 8 93 16 123 6 313 -25 444 -42 182
-95 309 -188 449 -26 41 -45 78 -41 82 5 3 52 21 106 39 174 57 231 30 397
-190 48 -63 97 -124 109 -134 11 -11 21 -24 21 -31 0 -20 35 -45 62 -45 28 0
57 27 63 58 5 30 -24 62 -65 71 -30 6 -47 23 -118 116 -110 147 -155 190 -232
228 -88 44 -150 42 -284 -7 -54 -20 -106 -36 -115 -35 -9 0 -37 24 -63 53 -46
52 -47 54 -36 92 13 48 38 98 128 256 112 195 151 352 116 470 -36 126 -242
367 -359 422 -92 42 -215 49 -366 21 l-35 -7 74 84 c41 46 81 91 90 101 15 16
19 13 74 -54 l58 -71 28 27 28 27 -59 72 c-32 40 -59 75 -59 79 0 3 30 52 66
108 64 99 162 286 200 382 21 53 90 132 129 147 20 8 25 16 25 45 0 29 -4 35
-21 35 -11 0 -30 -5 -41 -11 -19 -10 -20 -9 -15 12 4 13 12 50 19 82 7 36 17
57 26 57 24 0 161 -68 230 -114 100 -67 183 -146 262 -252 80 -106 124 -140
221 -169 84 -26 142 -81 163 -157 9 -29 20 -116 25 -193 16 -233 35 -284 164
-442 125 -154 154 -218 171 -383 4 -30 9 -77 12 -104 l6 -49 -63 35 c-35 19
-104 57 -154 83 -167 90 -250 155 -315 249 -44 65 -65 131 -85 266 -26 174
-89 337 -166 424 -16 19 -29 45 -29 60 0 57 -82 72 -116 21 -14 -21 -14 -30
-4 -55 7 -18 22 -33 36 -36 36 -9 83 -70 126 -161 37 -79 59 -162 92 -350 33
-192 143 -329 358 -449 48 -27 138 -78 202 -112 208 -116 288 -215 287 -360 0
-87 -14 -143 -45 -179 -20 -23 -31 -27 -74 -26 -43 1 -80 14 -219 81 -161 78
-182 86 -246 96 -28 5 -87 -11 -87 -22 0 -4 9 -18 18 -30 14 -18 30 -25 63
-27 30 -2 83 -22 169 -65 172 -86 239 -110 309 -110 132 0 199 109 189 306 -6
105 -44 188 -121 261 -29 28 -51 56 -49 62 6 18 -16 223 -34 311 -21 104 -63
182 -161 301 -129 156 -145 198 -157 422 -10 177 -34 256 -100 325 -37 40 -68
57 -150 84 -83 27 -106 46 -175 141 -129 179 -318 319 -520 387 -49 17 -93 30
-99 30 -5 0 -15 -28 -21 -62 -69 -361 -246 -716 -502 -1005 -249 -281 -619
-525 -1014 -668 -518 -189 -903 -409 -1183 -680 -271 -260 -411 -512 -457
-821 -38 -258 4 -500 129 -748 98 -192 200 -329 378 -501 199 -194 382 -320
694 -476 l212 -106 -92 -37 c-50 -21 -99 -38 -108 -38 -26 1 -246 96 -391 168
-353 177 -653 404 -851 643 -237 287 -376 619 -376 898 0 351 128 657 390 936
286 305 650 531 1205 752 508 201 923 479 1187 794 236 282 377 592 404 890
l7 73 -44 -7 c-38 -5 -53 -2 -111 29 -37 19 -85 40 -105 47 -27 8 -46 23 -65
52 -15 23 -54 75 -87 115 -44 52 -61 81 -61 102 0 16 4 31 8 34 5 3 60 -24
123 -59 105 -60 172 -86 185 -72 11 11 -20 77 -39 83 -10 3 -61 30 -112 60
-51 29 -114 59 -140 66 -46 12 -48 12 -71 -15 -33 -38 -41 -92 -21 -146 17
-49 16 -48 -38 29 -51 73 -92 117 -136 145 -34 22 -179 75 -205 75 -9 0 -34
-48 -34 -66 0 -2 37 -15 83 -29 124 -38 161 -70 272 -234 50 -75 116 -133 185
-163 36 -16 79 -36 95 -43 26 -12 3 -14 -198 -14 l-228 -1 6 58 c4 31 12 71
18 89 8 25 7 36 -6 56 -25 38 -84 40 -109 3 -13 -19 -9 -63 7 -76 15 -13 20
-67 9 -107 -6 -23 -9 -23 -169 -23 l-163 0 -6 93 c-4 50 -9 124 -12 162 -6 91
10 246 32 313 54 164 255 243 476 187 77 -19 121 -42 261 -137 151 -102 197
-122 335 -148 62 -11 125 -26 140 -31 53 -20 103 -63 159 -137 72 -93 149
-151 250 -188 337 -120 496 -264 551 -500 l19 -79 34 3 c19 2 36 6 39 9 9 9
-40 176 -70 237 -78 158 -234 284 -460 369 -177 68 -217 93 -292 187 -111 139
-164 172 -327 201 -58 11 -122 24 -141 30 -42 14 -131 66 -220 129 -101 72
-151 97 -245 125 -243 70 -487 -12 -567 -192 -46 -104 -60 -284 -43 -533 l8
-100 -30 0 -29 0 9 103 c5 56 7 172 4 257 -5 166 -21 239 -72 319 -44 70 -134
129 -238 157 -64 17 -192 17 -272 -1z m1735 -1092 c0 -26 -23 -83 -33 -83 -7
0 -505 0 -1107 0 l-1095 -1 -12 33 c-6 18 -12 39 -12 46 -1 9 231 12 1129 12
622 0 1130 -3 1130 -7z m-163 -385 l-25 -43 -941 0 -941 0 -26 43 -25 42 991
0 992 0 -25 -42z m-237 -313 c0 -5 -17 -26 -37 -47 l-37 -38 -657 0 -657 0
-36 42 c-20 23 -36 44 -36 47 0 3 328 6 730 6 459 0 730 -4 730 -10z m-1864
-340 c137 -26 220 -61 308 -129 93 -73 252 -177 344 -226 34 -18 60 -35 58
-37 -3 -3 -65 -31 -138 -62 -198 -86 -348 -164 -539 -279 l-36 -22 -41 36
c-23 19 -42 42 -42 50 0 21 -37 54 -60 54 -27 0 -70 -43 -70 -70 0 -27 35 -60
63 -60 13 0 36 -13 51 -29 l28 -29 -39 -28 c-66 -49 -237 -191 -257 -213 -11
-11 -22 -21 -26 -21 -3 0 -17 26 -30 58 -23 55 -35 77 -134 247 -60 103 -97
220 -97 304 0 78 28 141 111 244 107 134 195 204 287 227 44 10 157 4 259 -15z
m2581 -10 c99 -45 285 -256 322 -364 33 -100 -8 -253 -121 -444 -40 -67 -82
-146 -94 -175 -11 -29 -24 -55 -27 -58 -3 -4 -34 19 -69 51 -49 45 -144 119
-257 201 -7 5 54 53 68 54 52 1 70 87 25 116 -45 30 -76 10 -113 -74 -3 -7
-17 -20 -31 -29 -24 -14 -30 -12 -140 53 -63 37 -187 103 -275 145 -141 68
-192 91 -295 131 -23 9 -18 13 68 58 113 60 275 164 362 235 83 66 89 69 189
95 185 47 294 48 388 5z m-1213 -61 c-54 -35 -129 -80 -166 -100 l-69 -36 -97
56 c-53 30 -128 75 -167 100 l-70 45 325 3 c179 2 329 1 334 -1 5 -2 -36 -32
-90 -67z m284 -450 c399 -171 708 -364 946 -594 258 -249 385 -459 448 -740
19 -88 23 -132 23 -275 -1 -152 -4 -180 -27 -267 -48 -177 -135 -356 -258
-531 -79 -113 -311 -349 -438 -445 -223 -171 -499 -321 -847 -462 -638 -258
-1067 -553 -1339 -924 -166 -225 -251 -460 -272 -748 l-6 -88 166 0 166 0 0
-59 c0 -35 5 -61 11 -63 14 -5 -129 -131 -173 -154 -43 -22 -98 -13 -205 35
-48 22 -169 69 -268 106 -337 124 -516 226 -663 379 -116 121 -186 236 -253
418 -37 101 -37 109 -1 99 66 -20 134 -56 162 -88 17 -19 55 -83 85 -144 58
-114 108 -180 158 -206 53 -27 246 -19 314 14 62 29 78 98 47 202 -23 78 -20
119 15 199 57 129 61 225 13 322 -36 72 -68 92 -226 141 -72 22 -164 56 -204
75 -65 31 -72 38 -72 64 0 54 -67 78 -108 40 -39 -36 -25 -82 33 -112 17 -8
55 -29 85 -47 30 -17 130 -56 222 -87 184 -61 195 -69 218 -154 16 -61 6 -125
-35 -220 -40 -91 -43 -138 -16 -244 10 -38 16 -78 13 -88 -5 -22 -50 -35 -153
-44 -121 -10 -156 17 -242 194 -89 185 -128 214 -380 283 -185 50 -244 93
-287 206 -51 134 -23 209 123 329 158 129 228 232 250 364 6 36 12 67 13 69 2
2 20 -10 41 -26 123 -97 283 -184 414 -224 90 -28 239 -31 306 -6 45 17 53 12
53 -37 0 -39 50 -125 93 -160 59 -48 142 -88 290 -139 71 -25 131 -47 134 -50
2 -3 -29 -46 -71 -96 -41 -50 -94 -117 -117 -150 l-41 -59 -59 59 c-33 33 -59
63 -59 69 0 13 -34 30 -61 30 -58 0 -82 -84 -34 -116 14 -9 34 -14 47 -11 17
5 31 -3 60 -34 53 -55 56 -76 19 -136 -47 -76 -155 -308 -187 -401 l-29 -83
-50 6 c-27 3 -97 -1 -155 -8 -121 -17 -194 -14 -247 8 -70 30 -127 101 -122
153 6 61 -28 92 -84 78 -46 -11 -55 -88 -15 -113 8 -4 26 -29 41 -55 39 -67
110 -125 176 -145 63 -18 164 -20 261 -4 78 13 157 14 164 3 3 -5 -1 -33 -9
-63 -7 -30 -15 -67 -17 -84 -3 -28 -1 -30 34 -33 l36 -3 11 53 c65 308 238
665 451 933 276 345 669 619 1114 775 179 63 428 178 590 272 494 287 826 666
964 1098 45 141 56 229 49 388 -7 147 -21 230 -63 357 -141 428 -586 844
-1203 1125 -63 28 -126 56 -140 62 -24 9 -20 12 64 48 50 21 100 38 113 39 12
1 102 -33 200 -75z m-478 -186 c0 -13 1 -102 1 -198 0 -96 3 -180 7 -186 4 -7
66 -45 137 -87 72 -41 234 -134 360 -207 127 -74 265 -153 308 -177 l77 -44 0
-135 c0 -74 -3 -134 -7 -134 -17 -1 -209 -1 -225 -1 -15 1 -18 11 -18 65 l0
63 -112 66 c-62 36 -215 124 -340 197 l-228 131 -152 -89 c-84 -49 -237 -137
-340 -197 l-188 -108 0 -396 0 -396 198 -114 c108 -63 261 -151 339 -197 l143
-83 157 91 c87 50 217 125 288 166 72 42 154 89 183 105 l52 29 0 69 0 69 125
0 125 0 0 -113 0 -113 135 -78 c74 -43 135 -83 135 -90 0 -6 -8 -23 -17 -36
-9 -14 -17 -26 -18 -28 -1 -1 -63 34 -139 78 l-137 80 -212 -122 c-117 -67
-264 -152 -327 -188 -63 -36 -159 -92 -212 -124 l-98 -57 0 -180 c0 -195 4
-180 -55 -183 -19 -1 -20 7 -25 183 l-5 185 -180 104 c-396 229 -583 337 -642
371 l-63 35 0 511 0 512 -144 84 -144 83 19 39 20 38 32 -19 c103 -62 253
-145 262 -145 5 0 93 49 195 108 102 59 290 168 418 242 l232 135 0 204 0 204
40 0 c35 0 40 -3 40 -22z m-967 -2997 c50 -31 81 -84 142 -244 30 -77 53 -142
52 -142 -17 -8 -196 -153 -244 -198 l-64 -60 -112 38 c-298 102 -377 155 -402
273 -6 28 -11 32 -38 32 -47 0 -21 17 53 35 145 34 168 44 205 87 21 25 44 69
57 109 l22 68 70 11 c39 6 78 13 86 15 39 10 141 -4 173 -24z m2107 8 l65 -12
19 -59 c21 -65 62 -129 102 -154 14 -10 62 -25 107 -35 45 -9 96 -23 112 -30
l30 -13 -31 -4 c-28 -3 -33 -8 -43 -48 -25 -99 -113 -159 -358 -244 l-122 -42
-38 31 c-108 91 -235 191 -262 207 -17 10 -31 22 -31 27 0 19 92 254 115 292
59 102 135 121 335 84z m-1858 -88 c57 -27 139 -63 182 -81 l78 -33 -53 -30
c-30 -16 -82 -47 -117 -68 -35 -22 -67 -39 -72 -39 -4 0 -21 33 -36 73 -15 39
-42 107 -59 150 -18 42 -32 77 -30 77 1 0 49 -22 107 -49z m1396 -93 c-28 -73
-54 -137 -59 -142 -4 -5 -20 -1 -36 9 -15 11 -67 40 -115 65 l-88 46 143 63
c78 34 153 68 167 76 14 8 28 14 31 15 4 0 -16 -60 -43 -132z m1725 53 c11
-125 86 -238 244 -368 124 -102 156 -149 154 -228 -1 -53 -20 -115 -50 -165
-45 -75 -100 -106 -263 -150 -240 -65 -289 -101 -375 -277 -91 -188 -118 -209
-252 -198 -90 8 -131 18 -143 38 -8 13 -5 28 19 124 20 79 14 130 -27 223 -38
84 -47 155 -31 217 20 75 41 89 218 147 89 30 188 69 220 86 32 18 70 39 84
46 54 29 68 77 34 114 -36 40 -105 14 -105 -40 0 -23 -9 -32 -64 -59 -35 -17
-126 -51 -204 -76 -77 -25 -155 -56 -174 -68 -20 -13 -45 -45 -63 -82 -26 -52
-30 -70 -29 -140 0 -69 5 -91 37 -163 41 -92 45 -128 21 -209 -23 -80 -15
-159 19 -189 30 -26 100 -42 202 -48 148 -7 204 35 296 219 33 66 74 134 90
152 41 41 189 108 189 84 0 -21 -64 -190 -97 -256 -114 -227 -299 -398 -564
-524 -57 -27 -185 -79 -284 -115 -99 -37 -214 -82 -255 -101 -170 -77 -193
-74 -319 35 -51 44 -85 80 -76 80 12 0 15 13 15 60 l0 60 171 0 170 0 -3 38
-3 37 -1209 3 -1208 2 6 31 c3 17 6 39 6 48 0 15 98 16 1201 13 l1201 -2 -6
37 c-15 87 -39 192 -47 204 -7 12 -196 14 -1149 14 -627 0 -1140 3 -1140 7 0
4 7 26 16 48 l16 40 1109 0 c753 0 1109 3 1109 10 0 14 -54 121 -97 192 l-34
58 -965 0 c-530 -1 -964 3 -964 7 1 4 14 25 31 46 l30 37 900 0 901 0 -33 41
c-18 23 -68 79 -112 125 l-79 84 -660 0 c-731 0 -680 -5 -594 63 l40 32 544 5
544 5 -90 68 c-98 73 -209 144 -340 218 l-82 46 115 52 116 51 100 -51 c372
-191 676 -458 895 -786 135 -203 263 -509 300 -724 l17 -96 36 4 c20 3 37 6
38 7 2 1 -4 40 -12 87 -8 46 -15 85 -15 87 0 6 91 1 145 -8 94 -16 205 -14
266 4 66 19 135 75 174 142 15 25 36 55 46 65 42 42 12 109 -47 109 -44 0 -68
-34 -59 -82 13 -68 -87 -159 -190 -172 -22 -3 -97 2 -167 10 -69 8 -140 13
-158 12 -31 -3 -31 -2 -59 82 -46 141 -149 363 -214 460 -16 25 -16 27 14 63
22 27 38 37 60 37 40 0 71 33 67 73 -6 63 -98 77 -121 19 -6 -15 -27 -42 -48
-60 l-37 -33 -33 48 c-28 41 -108 137 -181 219 l-19 22 112 37 c121 41 249
101 289 137 46 42 79 93 91 143 6 28 13 55 15 62 2 9 14 9 46 -4 68 -25 216
-22 308 6 98 30 265 117 365 191 44 32 83 59 86 59 3 1 9 -26 12 -58z m-2336
-314 c54 -30 134 -77 178 -105 l80 -52 -365 0 c-314 0 -362 2 -345 14 77 54
328 196 346 196 5 0 52 -24 106 -53z m633 -462 l45 -45 -785 0 -784 0 39 41
c22 23 48 44 57 47 9 4 324 6 700 5 l683 -3 45 -45z m263 -340 c15 -25 27 -48
27 -50 0 -3 -464 -5 -1031 -5 l-1030 0 28 50 28 50 975 0 975 0 28 -45z m132
-337 c4 -18 9 -41 11 -50 5 -17 -54 -18 -1139 -18 -629 0 -1146 2 -1149 5 -3
3 -1 26 5 50 l10 45 1128 0 1127 0 7 -32z m-1590 -349 c41 -36 42 -49 15 -123
-39 -104 -109 -142 -252 -139 -51 2 -217 30 -227 38 -5 6 66 67 126 107 29 21
69 40 88 44 33 6 35 9 35 46 l0 40 -37 -6 c-21 -4 -59 -18 -85 -31 l-48 -24 0
39 0 40 175 0 174 0 36 -31z m1285 -9 l0 -40 -48 24 c-26 13 -65 27 -85 31
l-37 7 0 -41 c0 -33 4 -41 18 -41 33 0 116 -49 177 -103 l60 -54 -95 -18
c-104 -19 -210 -21 -269 -5 -65 17 -123 93 -137 178 -6 37 -3 43 27 71 l34 30
178 1 177 0 0 -40z"/>
<path d="M1400 9499 c-25 -4 -82 -25 -128 -47 -46 -23 -88 -42 -94 -44 -7 -3
-8 -18 -4 -40 6 -34 8 -36 34 -28 15 4 69 27 120 50 98 44 134 47 165 12 20
-23 25 -43 37 -135 16 -131 46 -181 169 -288 77 -67 111 -123 111 -183 0 -37
0 -37 38 -34 l37 3 -2 53 c-3 78 -40 137 -144 232 -49 45 -96 95 -104 111 -9
16 -22 74 -30 129 -7 56 -22 115 -32 132 -36 62 -97 89 -173 77z"/>
<path d="M5210 9498 c-78 -22 -112 -80 -129 -224 -12 -98 -36 -138 -140 -233
-96 -87 -127 -135 -137 -213 -9 -65 -3 -75 40 -70 33 4 36 7 36 38 0 64 27
107 125 197 114 106 140 153 155 282 11 100 29 135 77 149 26 7 47 1 132 -38
121 -55 136 -57 145 -14 3 17 5 32 4 33 -2 1 -48 22 -103 47 -113 51 -154 61
-205 46z"/>
<path d="M1239 8503 c-55 -58 -158 -199 -175 -238 -19 -47 -18 -115 4 -172 10
-27 50 -96 89 -154 40 -58 79 -123 87 -144 18 -42 21 -101 6 -139 -8 -23 -6
-28 20 -41 39 -20 39 -20 56 20 35 85 8 180 -93 330 -83 125 -105 170 -105
222 0 47 11 66 98 177 46 58 47 59 63 39 20 -25 53 -43 80 -43 18 0 21 6 21
39 0 30 -4 40 -20 44 -11 3 -22 17 -25 33 -16 74 -53 83 -106 27z"/>
<path d="M5362 8528 c-5 -7 -13 -28 -17 -47 -4 -20 -14 -35 -26 -38 -17 -5
-26 -42 -16 -70 5 -17 61 -3 87 22 l28 27 59 -79 c33 -43 65 -88 71 -100 31
-58 3 -142 -92 -276 -96 -135 -124 -230 -94 -328 13 -44 18 -46 57 -23 27 16
27 18 16 52 -23 66 -4 122 86 254 112 166 141 257 105 341 -14 34 -129 191
-179 245 -32 33 -67 41 -85 20z"/>
<path d="M1034 8022 c-24 -2 -33 -10 -43 -37 -23 -65 -146 -146 -265 -174 -43
-11 -54 -10 -83 6 -32 17 -33 17 -60 -3 -34 -25 -40 -57 -19 -90 19 -28 69
-33 100 -9 11 8 32 15 46 15 34 0 120 29 189 65 74 37 153 118 170 174 14 49
9 58 -35 53z"/>
<path d="M5613 8013 c-11 -28 28 -102 78 -148 79 -74 203 -124 402 -162 72
-14 99 91 30 118 -22 8 -35 7 -61 -7 -28 -15 -39 -16 -90 -4 -127 28 -248 105
-273 175 -10 27 -18 34 -47 37 -22 3 -36 0 -39 -9z"/>
<path d="M121 7320 c-22 -34 -46 -81 -52 -103 -17 -64 -6 -161 34 -283 62
-190 56 -280 -35 -549 -71 -212 -84 -304 -53 -405 28 -92 76 -146 190 -215
120 -72 138 -101 161 -250 18 -119 65 -245 111 -296 19 -21 54 -46 79 -55 42
-16 48 -16 79 -1 39 19 79 69 114 146 23 48 24 57 14 115 -6 35 -27 98 -48
141 -24 51 -35 86 -31 101 3 12 45 55 93 96 58 49 90 84 99 108 20 56 16 138
-11 225 -14 44 -25 88 -25 98 0 13 -8 17 -35 17 -34 0 -35 -1 -35 -38 0 -22 9
-65 20 -97 21 -62 26 -154 10 -185 -5 -10 -38 -41 -74 -68 -135 -107 -148
-148 -86 -283 65 -140 64 -182 -8 -276 -29 -39 -40 -40 -76 -12 -51 40 -105
185 -121 320 -7 64 -51 163 -86 196 -13 12 -60 42 -104 66 -185 102 -207 217
-103 527 68 199 82 276 76 401 -4 71 -14 121 -40 204 -20 61 -38 122 -41 138
-8 49 12 120 50 175 19 29 34 54 32 55 -2 1 -16 12 -30 25 l-27 23 -41 -61z"/>
<path d="M6497 7356 c-31 -25 -34 -38 -11 -57 8 -7 27 -35 40 -62 37 -71 33
-127 -16 -282 -37 -114 -42 -141 -42 -225 0 -114 16 -187 84 -385 100 -292 73
-416 -110 -514 -79 -41 -128 -83 -151 -130 -18 -35 -25 -63 -55 -223 -26 -141
-109 -270 -154 -242 -9 6 -32 35 -50 65 -29 46 -33 61 -29 104 2 30 18 80 40
125 49 104 52 120 29 173 -14 32 -43 64 -100 111 -45 37 -84 77 -88 89 -12 38
-7 101 15 171 12 38 21 84 21 103 0 33 -1 34 -37 31 -32 -3 -37 -7 -40 -33 -2
-16 -13 -59 -24 -94 -22 -74 -25 -168 -5 -215 8 -20 46 -60 93 -99 115 -95
115 -97 64 -207 -32 -69 -44 -108 -47 -158 -6 -65 -5 -69 38 -136 53 -86 86
-111 139 -110 102 3 187 144 224 372 16 96 39 154 71 183 11 9 53 35 94 59 97
54 124 81 163 160 30 60 32 72 32 165 -1 96 -4 108 -62 280 -97 287 -101 363
-32 583 25 80 39 142 39 177 0 66 -29 146 -73 201 l-33 41 -27 -21z"/>
<path d="M191 5673 c-63 -76 -76 -117 -76 -233 1 -99 4 -114 52 -260 65 -199
62 -182 73 -345 6 -77 17 -165 26 -195 19 -69 71 -146 133 -198 l48 -41 27 28
26 27 -59 56 c-94 89 -112 139 -126 367 -7 117 -13 143 -71 316 -47 143 -64
246 -50 319 4 19 22 58 42 86 36 52 36 69 1 99 -12 10 -21 5 -46 -26z"/>
<path d="M6431 5674 l-21 -27 33 -36 c73 -81 74 -190 3 -407 -63 -196 -66
-209 -76 -362 -13 -193 -26 -230 -111 -317 l-69 -71 28 -27 28 -27 66 68 c99
101 122 159 133 337 9 156 14 181 61 327 94 288 96 390 10 515 -39 57 -57 63
-85 27z"/>
<path d="M478 1901 l-33 -29 0 -707 0 -707 33 -29 32 -29 233 0 c257 0 271 3
299 60 15 30 18 64 18 233 l0 197 -70 0 -70 0 0 -185 0 -185 -170 0 -170 0 0
645 0 645 170 0 170 0 0 -170 0 -171 68 3 67 3 0 190 c0 209 -6 235 -61 255
-14 6 -128 10 -254 10 l-230 0 -32 -29z"/>
<path d="M1328 1901 l-33 -29 0 -707 0 -707 33 -29 32 -29 255 0 255 0 32 29
33 29 0 707 0 707 -33 29 -32 29 -255 0 -255 0 -32 -29z m472 -736 l0 -645
-185 0 -185 0 0 645 0 645 185 0 185 0 0 -645z"/>
<path d="M2218 1901 l-33 -29 0 -707 0 -707 33 -29 32 -29 236 0 c255 0 279 4
302 55 9 18 12 125 12 370 l0 345 -150 0 -150 0 0 -60 0 -60 80 0 80 0 0 -265
0 -265 -170 0 -170 0 0 645 0 645 170 0 170 0 0 -170 0 -170 70 0 70 0 0 190
c0 125 -4 198 -12 215 -23 51 -47 55 -302 55 l-236 0 -32 -29z"/>
<path d="M3040 1165 l0 -765 65 0 65 0 1 558 0 557 202 -557 202 -558 48 0 47
0 0 765 0 765 -65 0 -65 0 -2 -539 -3 -538 -195 538 -195 539 -52 0 -53 0 0
-765z"/>
<path d="M3948 1901 l-33 -29 0 -707 0 -707 33 -29 32 -29 255 0 255 0 32 29
33 29 0 707 0 707 -33 29 -32 29 -255 0 -255 0 -32 -29z m472 -736 l0 -645
-185 0 -185 0 0 645 0 645 185 0 185 0 0 -645z"/>
<path d="M4800 1165 l0 -765 65 0 65 0 2 509 3 509 115 -434 c90 -341 118
-434 130 -434 12 0 40 93 130 432 l115 433 3 -508 2 -507 65 0 65 0 0 765 0
765 -65 0 c-64 0 -64 0 -73 -32 -5 -18 -60 -239 -123 -490 -62 -252 -116 -458
-119 -458 -3 0 -57 206 -119 458 -63 251 -118 472 -123 490 -9 32 -9 32 -73
32 l-65 0 0 -765z"/>
<path d="M6001 1863 c-7 -38 -27 -153 -46 -258 -19 -104 -62 -343 -95 -530
-34 -187 -74 -414 -90 -504 -17 -89 -30 -165 -30 -167 0 -3 30 -4 67 -2 l67 3
28 160 c15 88 27 161 27 163 2 4 301 2 301 -3 0 -2 11 -73 25 -157 14 -84 25
-156 25 -160 0 -4 32 -8 71 -8 l71 0 -6 27 c-5 26 -86 479 -171 963 -19 107
-48 272 -65 365 -16 94 -30 171 -30 173 0 1 -31 2 -69 2 l-69 0 -11 -67z m100
-329 c10 -66 37 -234 59 -374 22 -140 43 -267 46 -282 l6 -28 -133 0 -132 0 6
43 c3 23 30 196 61 385 31 188 56 352 56 364 0 47 12 4 31 -108z"/>
</g>
</svg>
